<svg xmlns="http://www.w3.org/2000/svg" width="15.999" height="15.999" viewBox="0 0 15.999 15.999">
  <path id="Shape_11" data-name="Shape 11" d="M466.182,2812a1.165,1.165,0,0,1-1.182-1.146v-13.708a1.164,1.164,0,0,1,1.182-1.146h13.635a1.164,1.164,0,0,1,1.183,1.146v13.708a1.165,1.165,0,0,1-1.183,1.146Zm9.966-6.472v3.865h2.417v-4.142c0-2.22-1.193-3.253-2.782-3.253a2.4,2.4,0,0,0-2.178,1.193v-1.022h-2.417c.031.677,0,7.224,0,7.224H473.6v-4.035a1.635,1.635,0,0,1,.079-.586,1.322,1.322,0,0,1,1.239-.878C475.8,2803.894,476.148,2804.558,476.148,2805.528Zm-8.715,3.865h2.417v-7.224h-2.417Zm-.142-9.459a1.247,1.247,0,0,0,1.335,1.248h.016a1.253,1.253,0,1,0-1.351-1.248Zm6.3,3.282c0-.008.011-.016.016-.025v.025Z" transform="translate(-465 -2796)" fill="#c6cacc"/>
</svg>
